<svg width="276" height="276" viewBox="0 0 276 276" fill="none" xmlns="http://www.w3.org/2000/svg">
<path d="M138.195 0.695312C111 0.695312 84.4162 8.75954 61.8045 23.8682C39.1927 38.9769 21.569 60.4516 11.1619 85.5764C0.754892 110.701 -1.96807 138.348 3.3374 165.02C8.64287 191.693 21.7385 216.193 40.9682 235.422C60.1979 254.652 84.6981 267.748 111.371 273.053C138.043 278.359 165.689 275.636 190.814 265.229C215.939 254.822 237.414 237.198 252.522 214.586C267.631 191.974 275.695 165.39 275.695 138.195C275.657 101.74 261.158 66.7885 235.38 41.0106C209.602 15.2327 174.651 0.733774 138.195 0.695312ZM138.195 263.079C113.489 263.083 89.336 255.761 68.7913 242.038C48.2467 228.315 32.2332 208.807 22.7763 185.982C13.3193 163.157 10.8437 138.041 15.6625 113.809C20.4813 89.5769 32.3781 67.3182 49.8482 49.8481C67.3183 32.378 89.5769 20.4812 113.809 15.6624C138.041 10.8436 163.157 13.3193 185.982 22.7762C208.807 32.2332 228.315 48.2467 242.038 68.7913C255.761 89.3359 263.084 113.489 263.079 138.195C263.021 171.292 249.843 203.015 226.433 226.412C203.023 249.808 171.292 262.968 138.195 263.006V263.079Z" fill="#1A1A1A"/>
<path d="M217.82 135.427C204.186 128.961 200.481 125.183 200.239 119.202C200.191 118.525 200.191 117.845 200.239 117.168C200.626 110.896 205.082 105.98 215.277 106.658C216.222 106.658 217.142 106.827 217.99 106.948C224.988 108.038 229.686 111.574 235.256 117.676L245.354 107.796C240.197 101.493 233.122 97.0456 225.206 95.1309C230.606 81.933 227.216 69.4616 216.004 61.9546C203.605 53.6968 193.192 55.7794 175.611 67.8391C163.188 76.4601 158.078 77.7436 152.751 74.9587C152.144 74.6567 151.561 74.3086 151.007 73.9174C145.801 70.4303 143.742 64.0372 149.433 55.6342C149.966 54.827 150.499 54.1004 151.031 53.4547C155.511 47.9091 160.888 45.6328 168.952 43.7681L165.44 30.086C157.407 31.3987 150.02 35.2921 144.396 41.1771C135.678 29.9166 123.183 26.6473 111.075 32.6045C97.7315 39.1671 94.317 49.2411 95.9879 70.5272C97.223 85.5171 95.7942 90.651 90.7572 93.8475C90.1852 94.2223 89.5862 94.5541 88.9651 94.8403C83.347 97.6252 76.857 96.1237 72.3286 87.0668C71.925 86.2274 71.5618 85.4201 71.2389 84.6452C68.672 78.01 69.4226 72.1981 71.8927 64.3036L58.3073 60.5259C55.4231 68.1408 55.0917 76.4867 57.3629 84.3063C43.2449 86.2436 34.1395 95.3974 33.2677 108.837C32.2991 123.706 39.3218 131.698 58.5738 140.875C72.2317 147.365 75.9126 151.143 76.1306 157.149C76.1669 157.81 76.1669 158.473 76.1306 159.134C75.7189 165.406 71.142 170.322 61.068 169.669C60.1478 169.669 59.2276 169.499 58.38 169.378C51.333 168.264 46.6836 164.728 41.1138 158.65L31.0156 168.555C36.1781 174.864 43.2622 179.312 51.1878 181.22C45.7634 194.418 49.1536 206.913 60.3657 214.372C72.7403 222.654 83.1532 220.571 100.758 208.487C113.181 199.915 118.291 198.607 123.619 201.368C124.2 201.682 124.757 202.046 125.338 202.433C130.593 205.92 132.603 212.338 126.912 220.741C126.424 221.485 125.899 222.205 125.338 222.896C120.858 228.441 115.482 230.718 107.394 232.582L110.929 246.265C118.964 244.957 126.353 241.063 131.973 235.174C140.691 246.434 153.211 249.703 165.271 243.795C178.638 237.184 182.053 227.134 180.382 205.872C179.147 190.809 180.575 185.7 185.661 182.503C186.224 182.142 186.806 181.811 187.404 181.51C193.071 178.75 199.512 180.227 204.041 189.308C204.452 190.096 204.823 190.905 205.155 191.73C207.722 198.389 206.971 204.177 204.477 212.047L218.086 215.849C220.986 208.228 221.309 199.867 219.007 192.044C233.125 190.156 242.23 180.953 243.102 167.513C244.095 152.596 237.072 144.629 217.82 135.427ZM228.451 167.465C227.967 175.141 222.373 179.573 213.243 179.573C205.082 167.15 192.344 162.864 180.139 168.894C167.16 175.311 164.302 185.24 166.021 205.702C167.402 222.387 164.932 227.497 157.957 231.033C150.983 234.568 144.42 231.808 139.868 223.913C146.576 210.594 143.888 197.42 132.603 189.865C120.495 181.849 110.493 184.319 93.6389 196.064C79.8841 205.606 74.1448 206.041 67.6791 201.707C61.2134 197.372 60.2446 190.422 64.8215 182.527C79.6903 181.68 89.7643 172.841 90.6361 159.183C91.5805 144.653 84.4125 137.388 65.8144 128.525C50.655 121.406 47.4101 116.659 47.9186 108.886C48.4272 101.112 54.0211 96.7776 63.1264 96.7776C71.2873 109.249 84.0251 113.535 96.2543 107.481C109.234 101.088 112.068 91.1353 110.372 70.6483C108.968 53.9633 111.462 48.8536 118.436 45.3423C125.411 41.8309 131.973 44.5673 136.502 52.4619C129.794 65.7566 132.458 78.9544 143.767 86.4857C155.875 94.5497 165.852 92.0312 182.731 80.3106C196.485 70.7694 202.104 70.3334 208.69 74.6439C215.277 78.9544 216.125 85.953 211.572 93.8475C196.679 94.6951 186.605 103.534 185.733 117.192C184.765 131.722 191.957 138.987 210.555 147.826C225.714 154.969 228.984 159.716 228.451 167.465V167.465Z" fill="#1A1A1A"/>
</svg>
