<svg width="172" height="38" viewBox="0 0 172 38" fill="none" xmlns="http://www.w3.org/2000/svg">
<path d="M16.62 37.78C26.52 37.78 31.02 33.4 31.02 26.92C31.02 21.82 28.32 17.62 18.18 16C10.26 14.68 8.93998 12.94 8.93998 10.54C8.93998 7.83997 11.16 6.03997 15.18 6.03997C20.28 6.03997 22.32 8.55997 23.46 13.3L30.18 11.92C28.8 5.31997 24.96 0.219971 15.48 0.219971C6.71998 0.219971 2.03998 4.29997 2.03998 10.66C2.03998 16.12 5.21998 20.14 15.18 21.7C21.96 22.72 24.06 24.22 24.06 27.16C24.06 30.04 21.66 31.84 17.04 31.84C11.52 31.84 8.03998 28.84 7.07998 23.74L0.47998 25.06C1.31998 32.02 5.69998 37.72 16.62 37.78Z" fill="black"/>
<path d="M46.8736 13.54C51.3136 13.54 53.5936 15.82 53.9536 20.2H39.1936C39.9136 15.64 42.6136 13.54 46.8736 13.54ZM47.0536 37.72C54.4936 37.72 58.3336 34 59.7736 28.6L54.1336 26.98C53.2936 29.86 51.6136 32.08 47.1136 32.08C42.4936 32.08 39.7336 29.74 39.1336 25H59.8336C59.9536 23.5 59.9536 22.36 59.9536 21.22C59.9536 13.48 55.6336 8.07997 47.0536 8.07997C38.2936 8.07997 32.6536 13.72 32.6536 23.26C32.6536 32.56 38.4136 37.72 47.0536 37.72Z" fill="black"/>
<path d="M78.1617 37L89.2017 8.79997H82.4217L78.5217 19.72C77.2017 23.5 75.8217 27.52 74.5617 31.12H74.4417C73.2417 27.52 71.8017 23.5 70.4817 19.72L66.6417 8.79997H59.6217L70.7817 37H78.1617Z" fill="black"/>
<path d="M102.889 13.54C107.329 13.54 109.609 15.82 109.969 20.2H95.2092C95.9292 15.64 98.6292 13.54 102.889 13.54ZM103.069 37.72C110.509 37.72 114.349 34 115.789 28.6L110.149 26.98C109.309 29.86 107.629 32.08 103.129 32.08C98.5092 32.08 95.7492 29.74 95.1492 25H115.849C115.969 23.5 115.969 22.36 115.969 21.22C115.969 13.48 111.649 8.07997 103.069 8.07997C94.3092 8.07997 88.6692 13.72 88.6692 23.26C88.6692 32.56 94.4292 37.72 103.069 37.72Z" fill="black"/>
<path d="M125.357 37V22.72C125.357 17.8 127.337 16.06 132.377 16.06H135.137V8.79997H133.517C129.257 8.79997 126.737 10.72 125.477 18.04H125.357V8.79997H118.877V37H125.357Z" fill="black"/>
<path d="M147.361 32.32C143.701 32.32 142.441 30.52 142.441 28.54C142.441 26.62 144.121 25.48 147.241 25.48H154.681V26.38C154.681 29.8 151.801 32.32 147.361 32.32ZM154.681 37H161.101V19.48C161.101 12.28 157.621 8.19997 149.461 8.19997C141.481 8.19997 137.761 12.1 136.921 18.4L143.101 19.24C143.761 15.16 145.741 13.6 149.221 13.6C153.121 13.6 154.681 15.7 154.681 19.54V20.68H146.281C139.201 20.68 136.081 24.4 136.081 29.56C136.081 34.96 139.741 37.6 144.961 37.6C149.821 37.6 153.241 34.96 154.561 29.92H154.681V37Z" fill="black"/>
<path d="M171.646 0.219971H165.166V37H171.646V0.219971Z" fill="black"/>
</svg>
