<svg width="45" height="45" viewBox="0 0 45 45" fill="none" xmlns="http://www.w3.org/2000/svg">
<path d="M22.5 0C18.0499 0 13.6998 1.3196 9.99968 3.79193C6.29957 6.26426 3.41569 9.7783 1.71272 13.8896C0.0097493 18.001 -0.435826 22.525 0.432341 26.8895C1.30051 31.2541 3.44342 35.2632 6.59011 38.4099C9.73679 41.5566 13.7459 43.6995 18.1105 44.5677C22.4751 45.4358 26.9991 44.9903 31.1104 43.2873C35.2217 41.5843 38.7357 38.7004 41.2081 35.0003C43.6804 31.3002 45 26.9501 45 22.5C44.9937 16.5346 42.6212 10.8152 38.403 6.59704C34.1848 2.37884 28.4655 0.00629377 22.5 0ZM22.5 42.9355C18.4571 42.9362 14.5048 41.738 11.143 39.4924C7.78113 37.2468 5.16075 34.0547 3.61325 30.3197C2.06574 26.5847 1.66065 22.4747 2.44918 18.5095C3.23771 14.5443 5.18446 10.9019 8.0432 8.04318C10.9019 5.18444 14.5443 3.2377 18.5095 2.44916C22.4747 1.66063 26.5847 2.06574 30.3197 3.61324C34.0547 5.16075 37.2468 7.78113 39.4924 11.143C41.7381 14.5048 42.9363 18.4571 42.9355 22.5C42.926 27.9158 40.7696 33.1069 36.9389 36.9354C33.1082 40.7639 27.9158 42.9173 22.5 42.9236V42.9355Z" fill="#1A1A1A"/>
<path d="M35.5289 22.0472C33.298 20.9892 32.6917 20.371 32.652 19.3922C32.6442 19.2814 32.6442 19.1702 32.652 19.0594C32.7154 18.0331 33.4446 17.2286 35.1129 17.3396C35.2674 17.3396 35.418 17.3673 35.5567 17.3871C36.7019 17.5655 37.4706 18.144 38.3821 19.1426L40.0345 17.5258C39.1905 16.4944 38.0329 15.7667 36.7375 15.4534C37.6212 13.2937 37.0664 11.2529 35.2317 10.0245C33.2028 8.67323 31.4989 9.01402 28.622 10.9874C26.5892 12.3981 25.753 12.6082 24.8813 12.1524C24.7819 12.103 24.6865 12.0461 24.5959 11.9821C23.744 11.4114 23.4071 10.3653 24.3384 8.99025C24.4256 8.85816 24.5127 8.73927 24.5999 8.6336C25.333 7.72615 26.2127 7.35366 27.5323 7.04854L26.9577 4.80965C25.6431 5.02445 24.4343 5.66155 23.5141 6.62456C22.0876 4.78192 20.0428 4.24694 18.0615 5.22176C15.8781 6.29564 15.3193 7.94412 15.5928 11.4273C15.7949 13.8802 15.5611 14.7203 14.7368 15.2433C14.6432 15.3047 14.5452 15.359 14.4436 15.4058C13.5243 15.8615 12.4623 15.6158 11.7212 14.1338C11.6552 13.9964 11.5958 13.8643 11.5429 13.7375C11.1229 12.6517 11.2457 11.7007 11.6499 10.4089L9.42686 9.79072C8.95489 11.0368 8.90066 12.4025 9.27232 13.6821C6.96208 13.9991 5.47212 15.497 5.32946 17.6962C5.17096 20.1293 6.32013 21.437 9.47045 22.9388C11.7054 24.0008 12.3077 24.619 12.3434 25.6017C12.3493 25.71 12.3493 25.8184 12.3434 25.9267C12.276 26.953 11.5271 27.7574 9.8786 27.6504C9.72802 27.6504 9.57744 27.6227 9.43874 27.6029C8.28561 27.4206 7.52479 26.842 6.61337 25.8474L4.96094 27.4681C5.8057 28.5006 6.96493 29.2284 8.26184 29.5406C7.37421 31.7003 7.92897 33.745 9.76368 34.9655C11.7886 36.3207 13.4925 35.9799 16.3734 34.0026C18.4063 32.5998 19.2424 32.3858 20.1142 32.8375C20.2093 32.8891 20.3004 32.9485 20.3955 33.0119C21.2554 33.5825 21.5843 34.6326 20.6531 36.0077C20.5733 36.1296 20.4873 36.2473 20.3955 36.3604C19.6624 37.2678 18.7827 37.6403 17.4592 37.9454L18.0377 40.1843C19.3525 39.9704 20.5616 39.3331 21.4813 38.3694C22.9078 40.2121 24.9565 40.747 26.9299 39.7801C29.1173 38.6983 29.6761 37.0538 29.4026 33.5746C29.2005 31.1098 29.4343 30.2737 30.2665 29.7506C30.3587 29.6916 30.454 29.6374 30.5518 29.5882C31.4791 29.1364 32.5332 29.3782 33.2742 30.8642C33.3414 30.9932 33.4022 31.1254 33.4564 31.2604C33.8765 32.3501 33.7537 33.2972 33.3455 34.5851L35.5725 35.2072C36.0469 33.9601 36.0998 32.5919 35.7231 31.3119C38.0333 31.0028 39.5233 29.497 39.666 27.2978C39.8284 24.8568 38.6792 23.553 35.5289 22.0472ZM37.2685 27.2898C37.1893 28.546 36.2739 29.2712 34.78 29.2712C33.4446 27.2383 31.3602 26.5369 29.363 27.5236C27.239 28.5737 26.7714 30.1984 27.0528 33.5469C27.2787 36.2772 26.8745 37.1133 25.7332 37.6918C24.592 38.2704 23.5181 37.8186 22.7731 36.5268C23.8708 34.3473 23.4309 32.1916 21.5843 30.9553C19.603 29.6436 17.9664 30.0478 15.2084 31.9697C12.9576 33.531 12.0184 33.6023 10.9604 32.893C9.90238 32.1837 9.74387 31.0464 10.4928 29.7546C12.9259 29.6159 14.5744 28.1695 14.717 25.9346C14.8716 23.557 13.6986 22.3682 10.6553 20.9179C8.17466 19.7528 7.64367 18.9762 7.72688 17.7041C7.8101 16.4321 8.72547 15.7228 10.2154 15.7228C11.5509 17.7636 13.6352 18.465 15.6364 17.4743C17.7603 16.4282 18.224 14.7995 17.9466 11.4471C17.7168 8.71683 18.1249 7.88071 19.2661 7.30612C20.4074 6.73154 21.4813 7.17932 22.2223 8.47115C21.1246 10.6466 21.5605 12.8063 23.4111 14.0387C25.3924 15.3582 27.0251 14.9461 29.787 13.0282C32.0378 11.4669 32.9572 11.3956 34.035 12.1009C35.1128 12.8063 35.2515 13.9515 34.5066 15.2433C32.0695 15.382 30.4211 16.8284 30.2784 19.0633C30.1199 21.4409 31.2968 22.6297 34.3401 24.0761C36.8208 25.2451 37.3557 26.0218 37.2685 27.2898V27.2898Z" fill="#1A1A1A"/>
</svg>
