<svg width="45" height="45" viewBox="0 0 45 45" fill="none" xmlns="http://www.w3.org/2000/svg">
<path d="M22.5 0C18.0499 0 13.6998 1.3196 9.99968 3.79193C6.29957 6.26426 3.41569 9.7783 1.71272 13.8896C0.0097493 18.001 -0.435826 22.525 0.432341 26.8895C1.30051 31.2541 3.44342 35.2632 6.59011 38.4099C9.73679 41.5566 13.7459 43.6995 18.1105 44.5677C22.4751 45.4358 26.9991 44.9903 31.1104 43.2873C35.2217 41.5843 38.7357 38.7004 41.2081 35.0003C43.6804 31.3002 45 26.9501 45 22.5C44.9937 16.5346 42.6212 10.8152 38.403 6.59704C34.1848 2.37884 28.4655 0.00629377 22.5 0ZM22.5 42.9355C18.4571 42.9362 14.5048 41.738 11.143 39.4924C7.78113 37.2468 5.16075 34.0547 3.61325 30.3197C2.06574 26.5847 1.66065 22.4747 2.44918 18.5095C3.23771 14.5443 5.18446 10.9019 8.0432 8.04318C10.9019 5.18444 14.5443 3.2377 18.5095 2.44916C22.4747 1.66063 26.5847 2.06574 30.3197 3.61324C34.0547 5.16075 37.2468 7.78113 39.4924 11.143C41.7381 14.5048 42.9363 18.4571 42.9355 22.5C42.926 27.9158 40.7696 33.1069 36.9389 36.9354C33.1082 40.7639 27.9158 42.9173 22.5 42.9236V42.9355Z" fill="#1A1A1A"/>
<path d="M35.5294 22.047C33.2984 20.989 32.6921 20.3708 32.6525 19.392C32.6446 19.2812 32.6446 19.17 32.6525 19.0591C32.7159 18.0328 33.4451 17.2284 35.1133 17.3393C35.2679 17.3393 35.4185 17.3671 35.5572 17.3869C36.7024 17.5652 37.4711 18.1438 38.3825 19.1423L40.035 17.5256C39.191 16.4941 38.0334 15.7664 36.738 15.4531C37.6217 13.2935 37.0669 11.2527 35.2322 10.0243C33.2033 8.67299 31.4994 9.01378 28.6225 10.9872C26.5896 12.3979 25.7535 12.6079 24.8817 12.1522C24.7824 12.1028 24.687 12.0458 24.5964 11.9818C23.7444 11.4112 23.4076 10.3651 24.3389 8.99001C24.426 8.85792 24.5132 8.73903 24.6004 8.63336C25.3335 7.72591 26.2132 7.35342 27.5328 7.0483L26.9582 4.80941C25.6436 5.0242 24.4348 5.6613 23.5146 6.62431C22.0881 4.78167 20.0433 4.2467 18.062 5.22151C15.8786 6.2954 15.3198 7.94388 15.5933 11.4271C15.7954 13.8799 15.5616 14.72 14.7373 15.2431C14.6437 15.3044 14.5457 15.3587 14.4441 15.4056C13.5247 15.8613 12.4627 15.6156 11.7217 14.1335C11.6557 13.9962 11.5963 13.8641 11.5434 13.7373C11.1234 12.6515 11.2462 11.7005 11.6504 10.4086L9.42734 9.79047C8.95537 11.0365 8.90114 12.4022 9.2728 13.6818C6.96257 13.9988 5.47261 15.4967 5.32995 17.696C5.17144 20.1291 6.32062 21.4367 9.47094 22.9386C11.7059 24.0006 12.3082 24.6187 12.3439 25.6015C12.3498 25.7097 12.3498 25.8182 12.3439 25.9264C12.2765 26.9528 11.5276 27.7572 9.87909 27.6502C9.72851 27.6502 9.57792 27.6225 9.43923 27.6026C8.2861 27.4204 7.52527 26.8418 6.61386 25.8472L4.96143 27.4679C5.80619 28.5003 6.96542 29.2281 8.26233 29.5404C7.37469 31.7 7.92946 33.7448 9.76417 34.9653C11.7891 36.3205 13.493 35.9797 16.3739 34.0023C18.4067 32.5995 19.2429 32.3856 20.1146 32.8373C20.2097 32.8888 20.3009 32.9483 20.396 33.0117C21.2559 33.5823 21.5848 34.6324 20.6536 36.0074C20.5738 36.1293 20.4878 36.247 20.396 36.3601C19.6629 37.2676 18.7832 37.6401 17.4597 37.9452L18.0382 40.1841C19.353 39.9701 20.5621 39.3329 21.4818 38.3692C22.9083 40.2118 24.957 40.7468 26.9304 39.7799C29.1178 38.6981 29.6766 37.0536 29.4031 33.5744C29.201 31.1096 29.4348 30.2735 30.267 29.7504C30.3592 29.6914 30.4545 29.6371 30.5523 29.5879C31.4796 29.1362 32.5336 29.3779 33.2747 30.8639C33.3419 30.9929 33.4027 31.1252 33.4569 31.2602C33.877 32.3499 33.7541 33.297 33.346 34.5849L35.573 35.207C36.0474 33.9599 36.1003 32.5917 35.7236 31.3117C38.0338 31.0026 39.5238 29.4968 39.6664 27.2975C39.8289 24.8565 38.6797 23.5528 35.5294 22.047ZM37.269 27.2896C37.1898 28.5457 36.2744 29.2709 34.7805 29.2709C33.445 27.2381 31.3607 26.5367 29.3635 27.5234C27.2395 28.5735 26.7719 30.1982 27.0533 33.5466C27.2791 36.2769 26.8749 37.113 25.7337 37.6916C24.5925 38.2701 23.5186 37.8184 22.7736 36.5265C23.8713 34.3471 23.4314 32.1914 21.5848 30.955C19.6035 29.6434 17.9669 30.0476 15.2089 31.9695C12.9581 33.5308 12.0189 33.6021 10.9609 32.8928C9.90287 32.1835 9.74436 31.0462 10.4933 29.7544C12.9264 29.6157 14.5748 28.1693 14.7175 25.9344C14.872 23.5568 13.6991 22.3679 10.6558 20.9176C8.17514 19.7526 7.64415 18.9759 7.72737 17.7039C7.81058 16.4319 8.72596 15.7226 10.2159 15.7226C11.5513 17.7633 13.6357 18.4647 15.6368 17.4741C17.7608 16.4279 18.2245 14.7993 17.9471 11.4469C17.7172 8.71659 18.1254 7.88046 19.2666 7.30588C20.4079 6.73129 21.4818 7.17907 22.2228 8.4709C21.1251 10.6464 21.561 12.806 23.4116 14.0384C25.3929 15.358 27.0255 14.9459 29.7875 13.028C32.0383 11.4667 32.9576 11.3953 34.0355 12.1007C35.1133 12.806 35.252 13.9513 34.507 15.2431C32.07 15.3818 30.4215 16.8281 30.2789 19.0631C30.1204 21.4407 31.2973 22.6295 34.3406 24.0759C36.8212 25.2449 37.3562 26.0215 37.269 27.2896V27.2896Z" fill="#1A1A1A"/>
</svg>
